<svg id="svg" version="1.1" width="400" height="169.9916177703269" viewBox="0 0 400 169.9916177703269" xmlns="http://www.w3.org/2000/svg" xmlns:xlink="http://www.w3.org/1999/xlink"><g id="svgg"><path id="path0" d="M51.509 33.999 C 51.509 34.093,51.583 34.169,51.674 34.169 C 51.829 34.169,52.224 34.342,55.206 35.719 C 57.868 36.947,60.009 37.909,60.081 37.909 C 60.116 37.909,60.859 38.246,61.734 38.659 C 63.206 39.353,66.419 40.781,73.438 43.860 C 76.283 45.109,77.163 45.497,78.538 46.108 C 78.959 46.295,79.647 46.600,80.068 46.787 C 80.489 46.974,81.237 47.310,81.730 47.533 C 82.224 47.756,82.662 47.939,82.703 47.939 C 82.744 47.939,83.182 48.121,83.675 48.344 C 85.192 49.030,86.392 49.576,87.595 50.129 C 88.228 50.420,88.784 50.659,88.830 50.659 C 88.876 50.659,90.270 51.264,91.928 52.004 C 95.346 53.529,98.535 54.928,101.147 56.048 C 102.129 56.468,103.238 56.950,103.612 57.119 C 103.986 57.287,105.057 57.748,105.992 58.143 C 106.927 58.538,108.096 59.042,108.590 59.265 C 109.083 59.487,109.521 59.669,109.562 59.669 C 109.603 59.669,110.060 59.860,110.577 60.093 C 111.094 60.327,111.940 60.710,112.457 60.943 C 112.974 61.177,113.431 61.368,113.472 61.368 C 113.513 61.368,113.951 61.550,114.445 61.771 C 114.938 61.992,116.834 62.804,118.657 63.575 C 120.480 64.346,123.081 65.457,124.437 66.043 C 125.793 66.629,127.667 67.431,128.602 67.825 C 129.537 68.220,130.608 68.679,130.982 68.845 C 131.356 69.012,132.618 69.549,133.787 70.038 C 134.955 70.527,136.315 71.110,136.809 71.333 C 137.303 71.556,137.741 71.738,137.782 71.738 C 137.824 71.738,138.359 71.968,138.972 72.248 C 139.584 72.529,140.119 72.758,140.161 72.758 C 140.202 72.758,140.640 72.940,141.134 73.162 C 141.628 73.385,143.523 74.196,145.346 74.966 C 147.170 75.735,149.235 76.616,149.936 76.923 C 152.968 78.251,156.121 79.587,157.768 80.241 C 159.429 80.901,161.008 81.569,162.601 82.283 C 162.975 82.450,163.857 82.817,164.562 83.097 C 166.055 83.690,168.841 84.864,170.128 85.444 C 170.622 85.666,171.056 85.848,171.093 85.848 C 171.184 85.848,175.890 87.833,176.541 88.145 C 177.480 88.596,175.525 88.229,174.331 87.730 C 173.788 87.504,170.340 86.441,167.106 85.502 C 166.405 85.299,165.640 85.069,165.406 84.992 C 165.172 84.914,164.407 84.684,163.706 84.479 C 163.005 84.274,162.010 83.973,161.496 83.810 C 160.982 83.647,160.255 83.427,159.881 83.322 C 158.704 82.991,156.869 82.435,155.520 82.000 C 154.266 81.596,151.435 80.752,142.711 78.183 C 140.467 77.522,138.134 76.827,137.527 76.639 C 136.374 76.282,135.036 75.892,133.022 75.323 C 132.367 75.139,131.296 74.824,130.642 74.624 C 129.987 74.424,129.222 74.199,128.942 74.124 C 128.661 74.050,128.088 73.876,127.667 73.738 C 127.246 73.600,126.596 73.400,126.222 73.294 C 125.848 73.188,124.853 72.903,124.012 72.660 C 123.170 72.417,122.252 72.155,121.972 72.077 C 121.691 72.000,120.659 71.696,119.677 71.402 C 117.929 70.879,117.508 70.760,114.917 70.059 C 114.216 69.869,113.285 69.605,112.848 69.472 C 112.179 69.268,112.068 69.266,112.144 69.464 C 112.193 69.593,112.303 69.698,112.388 69.698 C 112.474 69.698,113.058 70.014,113.688 70.399 C 114.317 70.785,115.062 71.234,115.342 71.396 C 115.623 71.559,116.235 71.926,116.702 72.212 C 118.169 73.109,129.457 79.841,131.107 80.803 C 131.973 81.307,133.205 82.042,133.844 82.435 C 134.484 82.828,135.293 83.317,135.642 83.522 C 137.720 84.736,149.701 91.913,150.871 92.644 C 151.895 93.283,157.042 96.348,158.028 96.905 C 158.318 97.069,159.121 97.543,159.813 97.958 C 160.505 98.373,162.027 99.272,163.196 99.955 C 164.365 100.638,165.964 101.586,166.751 102.062 L 168.180 102.927 175.165 103.471 C 179.007 103.770,183.221 104.096,184.530 104.195 C 187.986 104.457,190.878 104.685,193.200 104.878 C 194.322 104.971,196.273 105.127,197.535 105.224 C 198.797 105.322,200.710 105.480,201.785 105.576 C 202.860 105.673,204.762 105.820,206.011 105.905 C 209.090 106.113,209.013 106.320,205.695 106.752 C 204.900 106.856,203.294 107.088,202.125 107.268 C 200.956 107.448,198.470 107.830,196.600 108.116 C 194.730 108.402,192.741 108.709,192.180 108.797 C 190.597 109.046,186.852 109.640,185.720 109.821 C 185.159 109.911,183.859 110.107,182.830 110.255 C 181.802 110.404,180.501 110.596,179.941 110.683 C 179.380 110.769,178.385 110.915,177.731 111.007 C 177.076 111.099,176.062 111.252,175.478 111.346 C 174.894 111.440,173.938 111.594,173.353 111.689 C 172.769 111.783,171.755 111.935,171.101 112.027 C 170.446 112.119,169.452 112.265,168.891 112.352 C 168.330 112.439,167.527 112.557,167.106 112.616 C 165.103 112.894,164.090 113.168,161.411 114.157 C 155.175 116.460,148.236 119.047,146.536 119.702 C 145.555 120.081,144.331 120.543,143.816 120.730 C 143.302 120.917,142.728 121.131,142.541 121.205 C 141.000 121.818,140.350 122.057,140.222 122.057 C 140.140 122.057,139.749 122.201,139.352 122.377 C 138.956 122.554,138.173 122.867,137.612 123.073 C 137.051 123.280,136.218 123.595,135.761 123.773 C 135.305 123.951,134.864 124.097,134.782 124.097 C 134.700 124.097,134.309 124.241,133.912 124.418 C 133.516 124.594,132.580 124.971,131.832 125.255 C 131.084 125.539,128.865 126.384,126.902 127.132 C 123.879 128.284,118.777 130.217,113.387 132.252 C 111.408 132.999,108.409 134.144,108.032 134.296 C 107.845 134.372,107.233 134.601,106.672 134.807 C 106.111 135.012,105.499 135.242,105.312 135.317 C 105.125 135.393,104.131 135.775,103.102 136.167 C 102.074 136.558,101.079 136.941,100.892 137.017 C 99.323 137.657,96.109 138.886,94.433 139.487 C 93.311 139.890,89.945 141.150,86.953 142.289 C 83.961 143.428,81.322 144.419,81.088 144.492 C 80.854 144.566,79.745 144.986,78.623 145.427 C 77.501 145.869,75.780 146.535,74.798 146.909 C 73.816 147.283,72.860 147.652,72.673 147.731 C 72.486 147.810,72.027 147.972,71.653 148.092 C 70.321 148.519,70.164 148.783,71.313 148.664 C 75.276 148.253,78.163 147.942,79.983 147.729 C 80.731 147.641,82.146 147.487,83.128 147.386 C 84.795 147.215,85.904 147.088,89.078 146.702 C 89.779 146.616,91.156 146.465,92.138 146.365 C 93.119 146.265,94.535 146.112,95.283 146.025 C 96.031 145.937,97.369 145.783,98.258 145.683 C 99.146 145.583,100.446 145.431,101.147 145.347 C 104.003 145.002,105.598 144.817,107.862 144.566 C 111.145 144.203,112.802 144.015,114.492 143.816 C 115.287 143.723,116.568 143.573,117.340 143.483 C 118.111 143.392,119.392 143.236,120.187 143.135 C 120.982 143.035,122.320 142.880,123.162 142.792 C 124.003 142.704,125.342 142.553,126.137 142.457 C 126.932 142.360,128.309 142.207,129.197 142.116 C 130.085 142.026,131.462 141.874,132.257 141.779 C 134.472 141.514,138.570 141.034,140.161 140.854 C 140.629 140.801,142.274 140.606,143.816 140.421 C 149.047 139.792,152.387 139.401,158.351 138.717 C 161.623 138.342,166.596 137.770,169.401 137.446 C 172.206 137.122,175.992 136.700,177.816 136.507 C 179.639 136.314,182.393 136.004,183.935 135.818 C 188.422 135.278,189.355 135.171,191.245 134.976 C 193.129 134.782,195.036 134.575,197.493 134.300 C 198.311 134.208,199.783 134.052,200.765 133.953 C 201.747 133.855,203.162 133.704,203.910 133.618 C 207.203 133.242,207.056 133.246,206.948 133.526 C 206.893 133.669,206.755 133.787,206.641 133.787 C 206.451 133.787,205.066 134.314,203.697 134.907 C 203.394 135.039,202.896 135.253,202.592 135.383 C 202.289 135.513,201.598 135.819,201.057 136.063 C 200.517 136.307,200.041 136.507,199.999 136.507 C 199.958 136.507,199.422 136.736,198.810 137.017 C 198.198 137.297,197.662 137.527,197.620 137.527 C 197.578 137.527,197.025 137.764,196.392 138.055 C 195.298 138.556,190.468 140.650,185.465 142.793 C 184.203 143.333,182.652 144.014,182.019 144.306 C 181.385 144.598,180.834 144.836,180.794 144.836 C 180.754 144.836,179.895 145.188,178.886 145.618 C 177.083 146.386,176.415 146.680,174.623 147.490 C 174.129 147.714,173.692 147.896,173.650 147.896 C 173.608 147.896,173.073 148.126,172.461 148.406 C 171.848 148.687,171.313 148.916,171.271 148.916 C 171.205 148.916,170.735 149.122,168.721 150.034 C 167.674 150.508,161.265 153.286,156.226 155.450 C 154.777 156.072,153.362 156.685,153.081 156.811 C 152.801 156.937,152.189 157.210,151.721 157.417 C 151.254 157.624,150.467 157.977,149.974 158.200 C 149.480 158.423,149.042 158.606,149.000 158.606 C 148.959 158.606,148.426 158.836,147.816 159.116 C 147.205 159.397,146.207 159.856,145.597 160.136 C 144.987 160.416,144.454 160.646,144.412 160.646 C 144.371 160.646,143.933 160.829,143.439 161.052 C 142.945 161.275,142.178 161.619,141.734 161.817 C 141.290 162.014,140.601 162.321,140.204 162.498 C 139.807 162.675,138.303 163.329,136.864 163.951 C 135.424 164.573,134.047 165.190,133.804 165.322 L 133.362 165.562 133.957 165.568 C 134.533 165.573,136.781 165.331,141.011 164.810 C 142.133 164.672,145.576 164.251,148.661 163.874 C 151.747 163.497,155.839 162.997,157.756 162.762 C 165.083 161.865,168.828 161.415,175.266 160.655 C 180.225 160.069,181.082 159.965,182.320 159.798 C 182.975 159.710,184.811 159.482,186.400 159.290 C 187.990 159.099,189.864 158.870,190.565 158.781 C 191.266 158.692,192.605 158.537,193.540 158.436 C 194.475 158.335,195.814 158.181,196.515 158.094 C 197.216 158.007,198.479 157.855,199.320 157.756 C 200.161 157.657,201.424 157.506,202.125 157.420 C 202.826 157.333,204.127 157.179,205.015 157.076 C 205.903 156.973,207.204 156.819,207.905 156.733 C 210.708 156.387,214.354 155.964,216.660 155.715 C 222.255 155.111,222.191 155.123,224.241 154.223 C 228.055 152.549,229.109 152.091,231.959 150.871 C 233.549 150.190,235.920 149.163,237.229 148.589 C 239.783 147.469,239.975 147.385,240.884 146.997 C 241.211 146.857,241.921 146.544,242.461 146.300 C 243.002 146.056,243.478 145.856,243.520 145.856 C 243.561 145.856,244.096 145.627,244.709 145.346 C 245.321 145.066,245.857 144.836,245.899 144.836 C 245.941 144.836,246.476 144.607,247.089 144.326 C 247.701 144.046,248.236 143.816,248.278 143.816 C 248.320 143.816,248.758 143.634,249.251 143.410 C 251.202 142.528,251.732 142.298,253.124 141.729 C 253.918 141.404,256.634 140.241,259.159 139.146 C 261.683 138.050,264.628 136.774,265.703 136.311 C 266.779 135.848,267.888 135.367,268.168 135.241 C 268.449 135.115,269.023 134.858,269.443 134.670 C 269.864 134.481,270.820 134.085,271.568 133.789 C 272.316 133.493,273.490 132.989,274.176 132.669 C 274.862 132.349,275.453 132.087,275.488 132.087 C 275.524 132.087,275.957 131.903,276.451 131.678 C 277.623 131.145,281.000 129.707,281.080 129.707 C 281.115 129.707,281.704 129.449,282.390 129.134 C 285.986 127.484,296.808 122.694,298.003 122.225 C 300.233 121.348,305.143 119.980,308.882 119.195 C 312.463 118.442,315.940 117.880,319.507 117.476 C 324.160 116.948,325.666 116.878,332.342 116.878 C 338.957 116.877,341.601 116.996,345.559 117.469 C 346.330 117.562,347.631 117.715,348.449 117.811 C 350.811 118.086,353.148 118.444,356.311 119.015 C 356.825 119.108,357.667 119.257,358.181 119.346 C 358.695 119.436,359.460 119.578,359.881 119.663 C 362.479 120.187,362.493 120.258,359.549 117.905 C 352.822 112.526,344.738 108.197,334.300 104.383 C 330.645 103.047,330.966 103.259,330.125 101.618 C 322.004 85.776,316.110 81.172,298.088 76.596 C 294.081 75.578,292.950 75.307,289.120 74.444 C 288.255 74.249,287.357 74.027,287.123 73.950 C 286.889 73.873,286.354 73.732,285.933 73.636 C 284.958 73.414,283.753 73.143,282.830 72.937 C 282.433 72.849,281.419 72.615,280.578 72.418 C 279.737 72.221,278.742 71.991,278.368 71.906 C 277.994 71.822,277.191 71.638,276.583 71.498 C 274.953 71.121,271.732 70.427,266.638 69.358 C 265.797 69.181,264.037 68.805,262.728 68.522 C 259.794 67.888,248.584 65.590,246.154 65.125 C 245.172 64.937,243.336 64.584,242.074 64.341 C 240.812 64.098,238.938 63.756,237.909 63.581 C 236.881 63.407,235.427 63.143,234.679 62.995 C 233.931 62.848,232.860 62.647,232.299 62.550 C 231.738 62.453,230.897 62.305,230.429 62.221 C 229.962 62.138,229.006 61.981,228.304 61.874 C 227.603 61.767,226.685 61.615,226.264 61.535 C 225.844 61.455,225.002 61.310,224.394 61.214 C 221.236 60.713,218.900 60.353,217.680 60.181 C 216.932 60.075,215.861 59.920,215.300 59.837 C 214.739 59.754,213.974 59.644,213.600 59.593 C 213.226 59.541,212.116 59.385,211.135 59.245 C 208.326 58.846,207.096 58.685,205.270 58.476 C 204.335 58.370,203.081 58.207,202.483 58.116 C 201.735 58.002,201.340 58.006,201.216 58.129 C 201.091 58.255,201.124 58.309,201.328 58.309 C 201.488 58.309,201.752 58.377,201.915 58.462 C 202.077 58.546,203.281 58.963,204.590 59.388 C 205.899 59.813,208.768 60.784,210.965 61.546 C 213.162 62.309,217.216 63.680,219.975 64.593 C 222.733 65.507,227.590 67.150,230.769 68.243 C 233.948 69.337,237.199 70.451,237.994 70.718 C 239.960 71.380,241.917 72.071,242.329 72.250 C 242.702 72.412,245.693 73.458,247.174 73.944 C 252.982 75.851,257.253 78.827,263.429 85.275 C 266.335 88.308,268.182 90.275,268.800 90.993 C 268.980 91.202,269.699 92.001,270.399 92.768 C 271.098 93.536,271.991 94.542,272.384 95.004 C 272.777 95.465,273.983 96.826,275.065 98.028 C 278.752 102.122,283.213 107.276,283.213 107.441 C 283.213 107.628,283.126 107.557,280.062 104.887 C 276.667 101.929,272.399 98.274,271.241 97.333 C 270.673 96.872,269.367 95.759,268.338 94.860 C 267.310 93.961,265.818 92.697,265.023 92.051 C 264.229 91.405,263.081 90.446,262.473 89.921 C 261.866 89.395,260.144 87.944,258.649 86.695 C 257.153 85.447,255.508 84.065,254.994 83.625 C 251.531 80.661,246.327 78.036,241.054 76.596 C 240.540 76.455,239.545 76.179,238.844 75.983 C 237.632 75.643,236.845 75.425,233.914 74.617 C 231.381 73.919,230.237 73.602,228.984 73.254 C 228.283 73.060,227.174 72.760,226.519 72.588 C 225.865 72.416,224.890 72.154,224.352 72.007 C 221.987 71.357,221.253 71.163,218.445 70.442 C 213.814 69.252,197.784 65.239,194.475 64.441 C 189.431 63.224,185.951 62.388,184.530 62.051 C 183.782 61.874,182.176 61.490,180.960 61.198 C 179.745 60.907,178.119 60.520,177.348 60.339 C 174.102 59.575,172.933 59.302,172.291 59.157 C 171.078 58.883,169.454 58.508,166.766 57.881 C 162.851 56.968,155.706 55.326,152.231 54.541 C 148.279 53.649,148.152 53.620,147.046 53.379 C 146.532 53.266,145.844 53.115,145.516 53.042 C 145.189 52.969,143.315 52.554,141.351 52.119 C 139.388 51.684,137.456 51.254,137.059 51.163 C 135.700 50.854,134.722 50.635,134.042 50.489 C 133.668 50.408,133.017 50.266,132.597 50.173 C 132.176 50.079,131.487 49.926,131.067 49.833 C 130.646 49.739,129.958 49.582,129.537 49.484 C 129.116 49.385,128.198 49.188,127.497 49.045 C 126.796 48.902,125.113 48.560,123.757 48.284 C 122.401 48.008,120.565 47.625,119.677 47.432 C 118.789 47.239,117.718 47.010,117.297 46.922 C 116.876 46.835,115.079 46.459,113.302 46.087 C 111.526 45.715,108.389 45.058,106.332 44.628 C 104.275 44.197,101.483 43.621,100.127 43.347 C 97.454 42.807,93.896 42.067,91.203 41.490 C 90.268 41.290,87.973 40.815,86.103 40.435 C 84.233 40.055,82.053 39.607,81.258 39.440 C 79.081 38.983,73.934 37.955,71.823 37.557 C 70.795 37.363,69.609 37.132,69.188 37.044 C 66.773 36.539,63.639 35.925,61.496 35.538 C 61.005 35.449,59.341 35.139,57.799 34.850 C 52.284 33.814,51.509 33.709,51.509 33.999 M278.028 81.953 C 278.683 82.047,280.174 82.274,281.343 82.457 C 282.512 82.640,284.003 82.871,284.658 82.970 C 285.312 83.068,286.269 83.218,286.783 83.302 C 287.297 83.386,288.253 83.537,288.908 83.638 C 289.562 83.739,290.518 83.890,291.033 83.974 C 291.547 84.058,292.541 84.213,293.243 84.318 C 294.703 84.537,296.216 84.789,297.323 84.998 C 297.743 85.077,298.547 85.225,299.108 85.326 C 311.621 87.577,313.360 88.698,323.497 101.051 C 325.037 102.927,326.441 104.615,326.618 104.802 C 327.256 105.477,328.772 107.393,328.772 107.525 C 328.772 107.663,326.690 107.568,323.077 107.265 C 319.312 106.949,315.637 106.750,309.392 106.524 L 303.187 106.300 301.889 105.789 C 299.503 104.851,298.624 104.108,293.039 98.315 C 284.929 89.904,282.043 87.213,277.348 83.686 C 276.039 82.703,274.892 81.823,274.798 81.731 C 274.618 81.554,275.834 81.637,278.028 81.953 " stroke="none" fill="#121312" fill-rule="evenodd" data-index="0" style="opacity: 1;"></path><path id="path2" d="M300.145 5.476 C 300.085 5.970,300.050 9.480,300.067 13.274 C 300.083 17.069,300.047 20.254,299.986 20.353 C 299.924 20.454,298.831 20.582,297.452 20.649 C 293.643 20.835,286.327 21.746,284.488 22.264 C 284.207 22.343,283.251 22.574,282.363 22.777 C 277.905 23.796,272.147 25.684,268.789 27.227 C 268.008 27.586,267.340 27.879,267.304 27.879 C 267.119 27.879,261.342 30.835,260.093 31.569 C 257.544 33.066,257.321 33.208,255.333 34.592 C 250.842 37.719,248.213 39.914,244.642 43.516 C 241.531 46.653,236.760 52.387,237.099 52.580 C 237.171 52.620,237.765 52.745,238.419 52.856 C 239.074 52.968,239.774 53.092,239.975 53.133 C 240.275 53.193,240.752 52.710,242.628 50.445 C 252.362 38.692,266.129 30.167,281.683 26.261 C 285.169 25.385,285.787 25.247,287.378 24.988 C 288.032 24.881,288.989 24.725,289.503 24.642 C 290.017 24.558,291.088 24.414,291.883 24.322 C 295.689 23.883,297.187 23.772,298.598 23.826 L 300.127 23.884 300.123 25.202 C 300.120 25.926,300.101 30.141,300.080 34.568 L 300.042 42.616 297.458 42.728 C 294.435 42.859,294.573 42.778,294.637 44.385 L 294.688 45.644 297.343 45.691 L 299.998 45.737 300.119 50.110 C 300.186 52.516,300.314 55.057,300.403 55.759 C 300.493 56.460,300.645 57.646,300.741 58.394 C 301.023 60.580,301.226 62.233,301.342 63.286 C 301.508 64.792,302.082 64.542,302.082 62.963 C 302.082 62.636,302.153 62.048,302.240 61.656 C 302.326 61.264,302.481 60.255,302.584 59.414 C 302.687 58.572,302.860 57.425,302.968 56.864 C 303.075 56.303,303.207 53.587,303.260 50.829 L 303.357 45.814 306.077 45.729 L 308.797 45.644 308.847 44.241 L 308.896 42.839 306.172 42.839 C 303.489 42.839,303.448 42.833,303.356 42.456 C 303.305 42.246,303.285 37.981,303.310 32.979 L 303.357 23.884 303.782 23.820 C 304.264 23.747,308.784 24.068,310.837 24.321 C 316.067 24.964,322.544 26.453,326.902 28.014 C 335.250 31.005,342.581 35.189,349.256 40.771 C 352.644 43.604,354.664 45.594,357.828 49.214 C 359.344 50.949,363.051 55.804,363.708 56.913 C 363.802 57.073,364.168 57.648,364.520 58.192 C 368.643 64.554,371.546 70.932,373.973 78.963 C 374.129 79.478,374.733 81.958,375.009 83.213 C 375.219 84.173,375.769 87.399,375.949 88.738 C 376.279 91.190,376.540 94.319,376.540 95.837 L 376.541 97.581 369.528 97.537 L 362.516 97.493 362.431 95.538 L 362.346 93.583 361.071 93.583 L 359.796 93.583 359.711 95.538 L 359.626 97.493 357.926 97.595 C 356.991 97.651,355.997 97.744,355.716 97.800 C 355.242 97.896,354.751 97.974,351.806 98.428 C 349.250 98.821,348.500 98.984,348.588 99.126 C 348.639 99.210,348.849 99.277,349.054 99.277 C 349.259 99.276,350.229 99.427,351.211 99.612 C 354.717 100.273,357.303 100.637,358.492 100.637 L 359.700 100.637 359.748 102.550 L 359.796 104.462 360.386 104.518 C 360.711 104.549,361.302 104.526,361.698 104.466 L 362.420 104.358 362.468 102.540 L 362.516 100.722 369.528 100.678 L 376.541 100.634 376.541 102.309 C 376.541 103.876,376.478 104.589,376.020 108.287 C 375.761 110.372,375.337 112.882,375.013 114.237 C 374.935 114.564,374.783 115.253,374.674 115.767 C 374.565 116.281,374.414 116.893,374.338 117.127 C 374.262 117.361,374.115 117.858,374.012 118.232 C 370.371 131.379,363.090 143.429,352.812 153.317 C 349.835 156.180,345.360 159.802,342.286 161.835 C 341.819 162.144,341.258 162.558,341.039 162.754 L 340.641 163.111 342.229 163.196 C 345.710 163.382,346.348 163.144,349.341 160.539 C 349.575 160.336,350.302 159.734,350.956 159.202 C 358.204 153.312,365.476 144.554,370.154 136.082 C 373.093 130.758,375.822 124.171,377.055 119.422 C 377.225 118.768,377.473 117.811,377.607 117.297 C 377.741 116.783,377.944 115.903,378.059 115.342 C 378.254 114.390,378.401 113.697,378.672 112.452 C 379.076 110.601,379.901 103.075,379.936 100.935 C 379.940 100.656,380.451 100.637,388.250 100.637 L 396.560 100.637 396.663 100.255 C 396.810 99.705,396.789 98.040,396.631 97.792 C 396.528 97.630,394.574 97.571,388.176 97.537 L 379.856 97.493 379.740 94.688 C 379.630 92.012,379.449 90.096,379.086 87.760 C 378.995 87.176,378.840 86.181,378.742 85.550 C 378.643 84.919,378.494 84.097,378.410 83.723 C 378.326 83.349,378.173 82.660,378.071 82.193 C 377.420 79.225,376.721 76.798,375.719 74.033 C 375.346 73.005,374.875 71.704,374.673 71.143 C 373.755 68.599,370.664 62.145,369.056 59.414 C 367.428 56.649,363.209 50.481,362.603 49.979 C 362.546 49.932,362.150 49.434,361.722 48.872 C 359.607 46.096,354.325 40.711,351.093 38.038 C 345.884 33.730,339.632 29.814,334.212 27.464 C 333.604 27.201,332.801 26.849,332.427 26.683 C 330.535 25.840,328.873 25.238,324.947 23.977 C 324.371 23.792,323.003 23.419,321.122 22.934 C 319.897 22.619,316.618 21.940,314.662 21.597 C 312.291 21.181,308.002 20.746,306.077 20.726 C 305.423 20.720,304.543 20.663,304.122 20.599 L 303.357 20.484 303.272 12.580 L 303.187 4.675 301.720 4.626 L 300.253 4.577 300.145 5.476 M51.205 33.895 C 51.325 34.025,51.463 34.083,51.511 34.023 C 51.559 33.963,51.667 33.857,51.752 33.787 C 51.836 33.717,51.698 33.659,51.445 33.659 C 51.061 33.659,51.021 33.698,51.205 33.895 M261.113 83.043 C 261.998 83.931,262.760 84.658,262.807 84.658 C 262.853 84.658,262.168 83.931,261.283 83.043 C 260.399 82.155,259.637 81.428,259.590 81.428 C 259.543 81.428,260.229 82.155,261.113 83.043 M265.788 87.888 C 266.154 88.262,266.491 88.568,266.537 88.568 C 266.584 88.568,266.324 88.262,265.958 87.888 C 265.593 87.514,265.256 87.208,265.209 87.208 C 265.163 87.208,265.423 87.514,265.788 87.888 M175.865 88.052 C 175.568 88.160,175.582 88.184,175.993 88.262 C 176.247 88.311,176.456 88.289,176.456 88.214 C 176.456 87.988,176.220 87.923,175.865 88.052 M283.383 88.653 C 283.700 88.980,283.998 89.248,284.045 89.248 C 284.091 89.248,283.870 88.980,283.553 88.653 C 283.236 88.326,282.938 88.058,282.891 88.058 C 282.844 88.058,283.066 88.326,283.383 88.653 M291.203 88.949 C 291.203 89.074,291.593 89.555,292.070 90.019 C 292.547 90.483,293.632 91.628,294.481 92.563 C 295.330 93.498,297.056 95.355,298.317 96.691 C 299.577 98.026,300.831 99.379,301.102 99.696 C 302.674 101.537,303.220 101.727,307.692 101.996 C 309.235 102.088,312.271 102.290,314.439 102.443 C 319.680 102.814,319.575 102.963,316.441 99.618 C 315.872 99.010,314.952 98.016,314.396 97.410 C 309.552 92.118,308.774 91.716,300.722 90.343 C 298.806 90.016,296.128 89.558,294.773 89.326 C 293.417 89.093,292.059 88.863,291.755 88.813 C 291.363 88.749,291.203 88.788,291.203 88.949 M284.743 90.013 C 285.060 90.340,285.358 90.608,285.405 90.608 C 285.451 90.608,285.230 90.340,284.913 90.013 C 284.596 89.686,284.298 89.418,284.251 89.418 C 284.204 89.418,284.426 89.686,284.743 90.013 M270.803 93.381 C 270.803 93.410,271.052 93.659,271.356 93.933 L 271.908 94.433 271.409 93.880 C 270.943 93.365,270.803 93.250,270.803 93.381 M317.552 94.231 C 317.552 94.260,317.801 94.509,318.105 94.783 L 318.657 95.283 318.158 94.730 C 317.692 94.215,317.552 94.100,317.552 94.231 M292.138 97.408 C 293.163 98.436,294.040 99.278,294.087 99.278 C 294.134 99.278,293.333 98.436,292.308 97.408 C 291.282 96.379,290.405 95.538,290.359 95.538 C 290.312 95.538,291.112 96.379,292.138 97.408 M273.523 96.441 C 273.523 96.470,273.772 96.719,274.076 96.993 L 274.628 97.493 274.129 96.940 C 273.663 96.425,273.523 96.309,273.523 96.441 M108.627 96.671 C 108.113 96.698,103.753 96.802,98.938 96.902 C 94.122 97.002,87.697 97.156,84.658 97.244 C 81.619 97.332,76.226 97.481,72.673 97.576 C 62.591 97.846,54.767 98.072,49.214 98.254 C 46.409 98.346,41.666 98.499,38.674 98.594 C 35.682 98.689,31.016 98.843,28.304 98.937 C 25.593 99.030,20.926 99.179,17.935 99.268 C 4.893 99.658,3.484 99.819,11.305 100.025 C 13.549 100.084,17.680 100.208,20.484 100.300 C 23.289 100.392,28.147 100.542,31.279 100.634 C 34.411 100.726,39.269 100.877,42.074 100.970 C 47.987 101.166,56.262 101.418,64.598 101.655 C 67.824 101.747,72.758 101.898,75.563 101.990 C 104.152 102.927,133.974 103.271,130.663 102.625 L 129.834 102.463 129.944 101.391 C 130.005 100.802,130.167 99.999,130.305 99.607 C 130.444 99.215,130.557 98.615,130.557 98.274 C 130.557 97.574,130.942 96.911,131.374 96.870 C 133.512 96.666,112.267 96.480,108.627 96.671 M296.898 102.337 C 297.735 103.179,298.459 103.867,298.505 103.867 C 298.552 103.867,297.905 103.179,297.068 102.337 C 296.230 101.496,295.506 100.807,295.460 100.807 C 295.413 100.807,296.060 101.496,296.898 102.337 M278.623 102.221 C 278.623 102.250,278.872 102.499,279.176 102.773 L 279.728 103.272 279.229 102.720 C 278.763 102.205,278.623 102.089,278.623 102.221 M171.825 103.308 C 172.037 103.348,172.343 103.347,172.505 103.304 C 172.668 103.262,172.495 103.228,172.121 103.230 C 171.747 103.232,171.614 103.267,171.825 103.308 M176.245 103.648 C 176.457 103.688,176.763 103.687,176.925 103.644 C 177.088 103.602,176.915 103.568,176.541 103.570 C 176.167 103.572,176.034 103.607,176.245 103.648 M180.578 103.985 C 180.742 104.027,181.009 104.027,181.173 103.985 C 181.337 103.942,181.203 103.907,180.875 103.907 C 180.548 103.907,180.414 103.942,180.578 103.985 M185.085 104.328 C 185.296 104.368,185.602 104.367,185.765 104.324 C 185.927 104.282,185.754 104.248,185.380 104.250 C 185.006 104.252,184.873 104.287,185.085 104.328 M189.505 104.668 C 189.716 104.708,190.022 104.707,190.185 104.664 C 190.347 104.622,190.174 104.588,189.800 104.590 C 189.426 104.592,189.293 104.627,189.505 104.668 M281.003 104.941 C 281.003 104.970,281.252 105.218,281.555 105.493 L 282.108 105.992 281.609 105.440 C 281.143 104.925,281.003 104.809,281.003 104.941 M198.005 105.348 C 198.216 105.388,198.522 105.387,198.685 105.344 C 198.847 105.302,198.674 105.268,198.300 105.270 C 197.926 105.272,197.793 105.307,198.005 105.348 M202.167 105.685 C 202.331 105.727,202.599 105.727,202.762 105.685 C 202.926 105.642,202.792 105.607,202.465 105.607 C 202.138 105.607,202.004 105.642,202.167 105.685 M206.077 106.029 C 206.334 106.068,206.755 106.068,207.012 106.029 C 207.269 105.990,207.059 105.958,206.545 105.958 C 206.031 105.958,205.820 105.990,206.077 106.029 M207.480 106.338 C 207.199 106.467,207.085 106.572,207.225 106.572 C 207.365 106.572,207.709 106.467,207.990 106.338 C 208.270 106.210,208.385 106.105,208.245 106.105 C 208.105 106.105,207.760 106.210,207.480 106.338 M304.596 106.373 C 305.090 106.407,305.855 106.407,306.296 106.372 C 306.737 106.337,306.332 106.309,305.397 106.309 C 304.462 106.310,304.102 106.338,304.596 106.373 M282.510 106.603 C 282.615 106.752,282.643 106.943,282.574 107.028 C 282.505 107.113,282.520 107.123,282.609 107.049 C 282.698 106.976,282.867 107.091,282.986 107.304 C 283.104 107.518,283.204 107.601,283.207 107.489 C 283.210 107.378,283.012 107.072,282.767 106.809 C 282.521 106.547,282.406 106.454,282.510 106.603 M309.605 106.539 C 309.862 106.578,310.283 106.578,310.540 106.539 C 310.797 106.500,310.586 106.468,310.072 106.468 C 309.558 106.468,309.348 106.500,309.605 106.539 M314.707 106.709 C 314.965 106.748,315.348 106.747,315.557 106.707 C 315.766 106.667,315.555 106.635,315.087 106.636 C 314.620 106.637,314.449 106.670,314.707 106.709 M316.832 106.878 C 317.043 106.918,317.349 106.917,317.512 106.874 C 317.674 106.832,317.501 106.798,317.127 106.800 C 316.753 106.802,316.620 106.837,316.832 106.878 M320.401 107.048 C 320.613 107.088,320.919 107.087,321.081 107.044 C 321.244 107.002,321.071 106.968,320.697 106.970 C 320.323 106.972,320.190 107.007,320.401 107.048 M322.014 107.215 C 322.178 107.257,322.446 107.257,322.609 107.215 C 322.773 107.172,322.639 107.137,322.312 107.137 C 321.985 107.137,321.851 107.172,322.014 107.215 M324.649 107.387 C 324.860 107.428,325.204 107.428,325.414 107.387 C 325.625 107.347,325.453 107.314,325.032 107.314 C 324.611 107.314,324.439 107.347,324.649 107.387 M326.521 107.558 C 326.733 107.598,327.039 107.597,327.201 107.554 C 327.364 107.512,327.191 107.478,326.817 107.480 C 326.443 107.482,326.310 107.517,326.521 107.558 M94.348 115.377 C 88.202 115.466,58.961 116.254,48.292 116.618 C 45.526 116.713,40.398 116.867,36.894 116.962 C 31.244 117.114,29.611 117.260,30.443 117.536 C 30.576 117.580,33.017 117.656,35.869 117.705 C 38.721 117.754,43.311 117.873,46.069 117.970 C 48.827 118.067,53.493 118.222,56.439 118.314 C 59.384 118.407,64.165 118.559,67.063 118.653 C 87.031 119.298,96.339 119.515,108.372 119.615 C 118.573 119.700,119.652 119.683,120.251 119.427 L 120.909 119.145 120.453 118.668 C 119.515 117.689,119.882 115.774,121.013 115.750 C 121.447 115.741,121.993 115.679,122.227 115.612 C 123.217 115.329,107.057 115.192,94.348 115.377 M327.794 116.909 C 328.051 116.948,328.472 116.948,328.729 116.909 C 328.986 116.870,328.776 116.838,328.262 116.838 C 327.748 116.838,327.537 116.870,327.794 116.909 M336.126 116.909 C 336.385 116.948,336.767 116.947,336.976 116.907 C 337.185 116.866,336.974 116.834,336.507 116.836 C 336.039 116.837,335.868 116.870,336.126 116.909 M324.311 117.077 C 324.523 117.118,324.829 117.116,324.991 117.074 C 325.154 117.031,324.981 116.998,324.607 117.000 C 324.233 117.002,324.100 117.037,324.311 117.077 M339.779 117.077 C 339.989 117.118,340.334 117.118,340.544 117.077 C 340.754 117.037,340.582 117.003,340.161 117.003 C 339.741 117.003,339.569 117.037,339.779 117.077 M206.503 133.390 C 206.621 133.437,206.674 133.546,206.621 133.631 C 206.568 133.717,206.598 133.787,206.687 133.787 C 206.776 133.787,206.892 133.672,206.946 133.532 C 207.016 133.350,206.935 133.281,206.667 133.290 C 206.460 133.297,206.386 133.342,206.503 133.390 M200.297 134.074 C 200.461 134.117,200.729 134.117,200.892 134.074 C 201.056 134.031,200.922 133.996,200.595 133.996 C 200.268 133.996,200.134 134.031,200.297 134.074 M301.340 135.019 C 301.278 135.603,301.157 136.617,301.071 137.272 C 300.985 137.926,300.830 139.112,300.727 139.907 C 300.624 140.701,300.452 142.002,300.344 142.796 C 300.236 143.591,300.136 145.618,300.123 147.301 C 300.109 148.984,300.085 150.990,300.070 151.759 L 300.042 153.158 297.365 153.204 L 294.688 153.251 294.688 154.611 L 294.688 155.971 297.365 156.018 L 300.042 156.065 300.083 158.228 C 300.105 159.418,300.108 161.304,300.089 162.421 C 300.047 164.888,300.051 164.896,301.644 164.896 C 303.356 164.896,303.272 165.123,303.275 160.484 C 303.276 158.283,303.337 156.388,303.410 156.273 C 303.502 156.128,304.328 156.051,306.170 156.018 L 308.797 155.971 308.882 154.847 C 309.019 153.042,309.243 153.181,306.108 153.128 L 303.357 153.081 303.260 148.236 C 303.206 145.572,303.074 142.932,302.967 142.371 C 302.860 141.810,302.686 140.663,302.580 139.822 C 302.475 138.980,302.320 137.876,302.236 137.368 C 302.151 136.860,302.082 136.171,302.081 135.838 C 302.080 135.106,301.780 133.957,301.589 133.957 C 301.513 133.957,301.401 134.435,301.340 135.019 M175.648 136.794 C 175.812 136.837,176.079 136.837,176.243 136.794 C 176.407 136.751,176.273 136.716,175.946 136.716 C 175.618 136.716,175.484 136.751,175.648 136.794 M163.748 138.154 C 163.912 138.196,164.180 138.196,164.343 138.154 C 164.507 138.111,164.373 138.076,164.046 138.076 C 163.719 138.076,163.585 138.111,163.748 138.154 M157.799 138.834 C 157.962 138.876,158.230 138.876,158.394 138.834 C 158.557 138.791,158.423 138.756,158.096 138.756 C 157.769 138.756,157.635 138.791,157.799 138.834 M151.849 139.514 C 152.012 139.556,152.280 139.556,152.444 139.514 C 152.607 139.471,152.473 139.436,152.146 139.436 C 151.819 139.436,151.685 139.471,151.849 139.514 M91.670 146.484 C 91.834 146.526,92.102 146.526,92.265 146.484 C 92.429 146.441,92.295 146.406,91.968 146.406 C 91.640 146.406,91.507 146.441,91.670 146.484 M76.541 148.183 C 76.704 148.226,76.972 148.226,77.136 148.183 C 77.299 148.141,77.165 148.106,76.838 148.106 C 76.511 148.106,76.377 148.141,76.541 148.183 M73.311 148.523 C 73.474 148.566,73.742 148.566,73.906 148.523 C 74.069 148.481,73.935 148.446,73.608 148.446 C 73.281 148.446,73.147 148.481,73.311 148.523 M214.237 156.003 C 214.401 156.046,214.669 156.046,214.832 156.003 C 214.996 155.961,214.862 155.926,214.535 155.926 C 214.207 155.926,214.074 155.961,214.237 156.003 M173.438 160.933 C 173.602 160.976,173.870 160.976,174.033 160.933 C 174.197 160.890,174.063 160.855,173.736 160.855 C 173.408 160.855,173.275 160.890,173.438 160.933 " stroke="none" fill="#1a6efc" fill-rule="evenodd" data-index="2" style="visibility: visible; opacity: 1;"></path></g></svg>